<?xml version="1.0" encoding="utf-8"?>
<!-- Generator: Adobe Illustrator 23.0.4, SVG Export Plug-In . SVG Version: 6.00 Build 0)  -->
<svg version="1.1" id="high_tab" xmlns="http://www.w3.org/2000/svg" xmlns:xlink="http://www.w3.org/1999/xlink" x="0px" y="0px"
	 viewBox="0 0 1920 1200" style="enable-background:new 0 0 1920 1200;" xml:space="preserve">
<style type="text/css">
	.st0{fill:#E1F3FA;}
	.st1{clip-path:url(#SVGID_2_);}
	.st2{opacity:0.35;}
	.st3{opacity:0.45;fill-rule:evenodd;clip-rule:evenodd;fill:#2D88FF;enable-background:new    ;}
	.st4{fill:#0050FF;}
	.st5{opacity:0.45;fill:#0050FF;enable-background:new    ;}
	.st6{fill-rule:evenodd;clip-rule:evenodd;fill:#0050FF;}
	.st7{opacity:0.42;fill-rule:evenodd;clip-rule:evenodd;fill:#2D88FF;enable-background:new    ;}
	.st8{opacity:0.42;fill:#0050FF;enable-background:new    ;}
	.st9{opacity:0.42;fill-rule:evenodd;clip-rule:evenodd;fill:#0050FF;enable-background:new    ;}
	.st10{opacity:0.4;}
	.st11{opacity:0.3;}
</style>
<image style="overflow:visible;enable-background:new    ;" width="1920" height="1200" id="背景" xlink:href="784F8749F0CAB933.png" >
</image>
<rect id="矩形_1" class="st0" width="1920" height="1208"/>
<g>
	<defs>
		<rect id="SVGID_1_" width="1920" height="1208"/>
	</defs>
	<clipPath id="SVGID_2_">
		<use xlink:href="#SVGID_1_"  style="overflow:visible;"/>
	</clipPath>
	<g id="组_15" class="st1">
		<g id="组_17" class="st2">
			<path id="圆角矩形_7" class="st3" d="M769.3,1057.5l-160.8,160.8c-10,10-10,26.2,0,36.2c10,10,26.2,10,36.2,0l160.8-160.8
				c10-9.9,10.1-26.1,0.2-36.2c-9.9-10-26.1-10.1-36.2-0.2C769.5,1057.4,769.4,1057.4,769.3,1057.5z"/>
			<circle id="椭圆_3_拷贝" class="st4" cx="627" cy="1236" r="26"/>
			<path id="圆角矩形_7_拷贝_2" class="st3" d="M775.3,737.5L614.5,898.3c-10,10-10,26.2,0,36.2s26.2,10,36.2,0l0,0
				l160.8-160.8c10-10,10-26.2,0-36.2S785.3,727.5,775.3,737.5z"/>
			<circle id="椭圆_3_拷贝_3" class="st5" cx="633" cy="916" r="26"/>
			<path id="圆角矩形_7_拷贝_3" class="st3" d="M88.3,587.5L-72.5,748.3c-10,10-10,26.2,0,36.2c0,0,0,0,0,0
				c10,10,26.2,10,36.2,0l160.8-160.8c10-10,10-26.2,0-36.2S98.3,577.5,88.3,587.5L88.3,587.5z"/>
			<path id="椭圆_3_拷贝_4" class="st6" d="M-71.4,747.6c-10.2,10.2-10.2,26.6,0,36.8c0,0,0,0,0,0c10.2,10.2,26.6,10.2,36.8,0
				c10.2-10.2,10.2-26.6,0-36.8c0,0,0,0,0,0C-44.8,737.5-61.2,737.5-71.4,747.6z"/>
		</g>
		<g id="组_17_拷贝" class="st2">
			<path id="圆角矩形_7_拷贝_6-2" class="st7" d="M748.3,52.5L587.5,213.3c-10,10-10,26.2,0,36.2c10,10,26.2,10,36.2,0l0,0
				L784.5,88.7c10.1-9.9,10.2-26.1,0.3-36.2c-9.9-10.1-26.1-10.2-36.2-0.3C748.5,52.3,748.4,52.4,748.3,52.5z"/>
			<circle id="椭圆_3_拷贝_7-2" class="st8" cx="606" cy="231" r="26"/>
			<circle id="椭圆_3_拷贝_14" class="st8" cx="712" cy="125" r="26"/>
			<path id="圆角矩形_7_拷贝_7-2" class="st7" d="M1118.3-107.5L957.5,53.3c-10,10-10,26.2,0,36.2c10,10,26.2,10,36.2,0l0,0
				l160.8-160.8c10-10,10-26.2,0-36.2c0,0,0,0,0,0C1144.5-117.5,1128.3-117.5,1118.3-107.5C1118.3-107.5,1118.3-107.5,1118.3-107.5z
				"/>
			<circle id="椭圆_3_拷贝_8-2" class="st8" cx="976" cy="71" r="26"/>
		</g>
		<g id="组_17_拷贝_2" class="st2">
			<path id="圆角矩形_7_拷贝-3" class="st7" d="M1731.3,177.5l-160.8,160.8c-10,10-10,26.2,0,36.2c10,10,26.2,10,36.2,0l0,0
				l160.8-160.8c9.9-10,9.9-26.2-0.2-36.2C1757.4,167.6,1741.3,167.6,1731.3,177.5z"/>
			<circle id="椭圆_3_拷贝_2-3" class="st8" cx="1589" cy="356" r="26"/>
			<path id="椭圆_3_拷贝_4-3" class="st9" d="M1862.6-103.4c-10.2,10.1-10.2,26.6,0,36.8c0,0,0,0,0,0
				c10.1,10.2,26.6,10.2,36.8,0c0,0,0,0,0,0c10.2-10.1,10.2-26.6,0-36.8c0,0,0,0,0,0C1889.2-113.5,1872.8-113.5,1862.6-103.4
				C1862.6-103.4,1862.6-103.4,1862.6-103.4z"/>
			<path id="圆角矩形_7_拷贝_4-3" class="st7" d="M1623.3,843.5l-160.8,160.9c-10,10-10,26.2,0,36.2c10,10,26.2,10,36.2,0
				l160.8-160.9c10-9.9,10.1-26.1,0.2-36.2c-9.9-10-26.1-10.1-36.2-0.2C1623.5,843.4,1623.4,843.4,1623.3,843.5z"/>
			<circle id="椭圆_3_拷贝_5-3" class="st8" cx="1481" cy="1022" r="26"/>
			<path id="圆角矩形_7_拷贝_6-3" class="st7" d="M1429.3,525.5l-160.8,160.8c-10,10-10,26.2,0,36.2c10,10,26.2,10,36.2,0
				l160.8-160.8c10-9.9,10.1-26.1,0.2-36.2c-9.9-10-26.1-10.1-36.2-0.2C1429.5,525.4,1429.4,525.4,1429.3,525.5z"/>
			<circle id="椭圆_3_拷贝_7-3" class="st8" cx="1287" cy="704" r="26"/>
			<circle id="椭圆_3_拷贝_12" class="st8" cx="1641" cy="862" r="26"/>
		</g>
		<g id="组_16" class="st10">
			<path id="圆角矩形_7_拷贝_8-7" class="st7" d="M1806.5-282.6l-543.2,543.2c-33.7,33.7-33.7,88.4,0,122.1s88.4,33.7,122.1,0
				l543.2-543.2c33.7-33.7,33.7-88.4,0-122.1c0,0,0,0,0,0C1894.9-316.3,1840.3-316.3,1806.5-282.6z"/>
			<path id="椭圆_3_拷贝_9-7" class="st9" d="M1263.7,258.1c-34.3,34.3-34.3,89.9,0,124.2s89.9,34.3,124.2,0
				c34.3-34.3,34.3-89.9,0-124.2C1353.6,223.8,1298,223.8,1263.7,258.1C1263.7,258.1,1263.7,258.1,1263.7,258.1z"/>
			<path id="椭圆_3_拷贝_13" class="st9" d="M1456.7,65.1c-34.3,34.3-34.3,89.9,0,124.2s89.9,34.3,124.2,0
				c34.3-34.3,34.3-89.9,0-124.2C1546.6,30.8,1491,30.8,1456.7,65.1C1456.7,65.1,1456.7,65.1,1456.7,65.1z"/>
		</g>
		<g id="组_16_拷贝" class="st11">
			<path id="圆角矩形_7_拷贝_8-11" class="st7" d="M429.9,521L-568,1518.8c-62,62-62,162.4,0,224.4c0,0,0,0,0,0
				c62,62,162.4,62,224.4,0l997.9-997.9c62-62,62-162.4,0-224.4S491.9,459,429.9,521z"/>
			<circle id="椭圆_3_拷贝_9-11" class="st8" cx="69.5" cy="1106.5" r="157.5"/>
		</g>
	</g>
</g>
</svg>
